<?xml version="1.0" encoding="utf-8"?>
<!-- Generator: Adobe Illustrator 24.2.0, SVG Export Plug-In . SVG Version: 6.00 Build 0)  -->
<svg version="1.1" id="Layer_1" xmlns="http://www.w3.org/2000/svg" xmlns:xlink="http://www.w3.org/1999/xlink" x="0px" y="0px"
	 viewBox="0 0 177 35" enable-background="new 0 0 177 35" xml:space="preserve">
<path fill-rule="evenodd" clip-rule="evenodd" fill="#FFFFFF" d="M19.2,27.7C19.2,27.7,19.2,27.7,19.2,27.7c0.3-0.9,0.4-1.9,0.4-3
	c0-5.4-4.4-9.8-9.8-9.8c-0.5,0-1.1,0-1.6,0.1c0.8-5.4,5.4-9.5,11-9.5c6.1,0,11.1,5,11.1,11.1C30.3,22.8,25.3,27.7,19.2,27.7z
	 M9.8,30.7c-3.3,0-6-2.7-6-6c0-2.2,1.2-4.1,2.9-5.1c1,4.1,3.9,7.4,7.7,8.9C13.3,29.9,11.7,30.7,9.8,30.7z M15.3,27
	c-3.5-1.3-6.2-4.3-7-8.1c0.5-0.1,1-0.2,1.5-0.2c3.3,0,6,2.7,6,6C15.8,25.6,15.6,26.3,15.3,27z M19.2,3.8C12.5,3.8,7,9,6.5,15.5
	c-3.8,1.4-6.5,5-6.5,9.2c0,5.4,4.4,9.8,9.8,9.8c3.7,0,7-2.1,8.6-5.1c0.3,0,0.5,0,0.8,0c7.1,0,12.8-5.7,12.8-12.8
	C32,9.6,26.3,3.8,19.2,3.8z"/>
<path fill-rule="evenodd" clip-rule="evenodd" fill="#FFFFFF" d="M4.7,4.3c1.2,0,2.1-1,2.1-2.1C6.8,1,5.9,0,4.7,0
	C3.5,0,2.6,1,2.6,2.1C2.6,3.3,3.5,4.3,4.7,4.3z"/>
<path fill="#FFFFFF" d="M101.8,6.4c1.2,0,2.2-1,2.2-2.2S103,2,101.8,2c-1.2,0-2.2,1-2.2,2.2S100.6,6.4,101.8,6.4z"/>
<path fill="#FFFFFF" d="M86.7,30.2c-2.2,0-4.3-0.7-6.2-1.9c-1.8-1.2-3.3-3-4.1-5c-0.8-2-1.1-4.3-0.6-6.4c0.4-2.2,1.5-4.1,3-5.7
	c1.6-1.6,3.5-2.6,5.7-3c2.2-0.4,4.4-0.2,6.4,0.6c2,0.8,3.8,2.3,5,4.1c1.2,1.8,1.9,4,1.9,6.2c0,2.9-1.2,5.8-3.3,7.9
	C92.4,29,89.6,30.2,86.7,30.2z M86.7,12c-1.4,0-2.8,0.4-4,1.2c-1.2,0.8-2.1,1.9-2.6,3.2c-0.5,1.3-0.7,2.7-0.4,4.1
	c0.3,1.4,1,2.6,1.9,3.6s2.3,1.7,3.6,1.9c1.4,0.3,2.8,0.1,4.1-0.4c1.3-0.5,2.4-1.4,3.2-2.6c0.8-1.2,1.2-2.5,1.2-4
	c0-1.9-0.8-3.7-2.1-5S88.5,12,86.7,12L86.7,12z"/>
<path fill="#FFFFFF" d="M86.7,33.8c-2.9,0-5.7-0.9-8.1-2.5c-2.4-1.6-4.3-3.9-5.4-6.6c-1.1-2.7-1.4-5.6-0.8-8.5c0.6-2.8,2-5.5,4-7.5
	c2.1-2.1,4.7-3.4,7.5-4c2.8-0.6,5.8-0.3,8.5,0.8c2.7,1.1,5,3,6.6,5.4c1.6,2.4,2.5,5.2,2.5,8.1c0,3.9-1.5,7.6-4.3,10.4
	C94.3,32.2,90.6,33.8,86.7,33.8z M86.7,6.2c-2.5,0-5,0.8-7.2,2.2c-2.1,1.4-3.8,3.4-4.7,5.8c-1,2.4-1.2,4.9-0.7,7.4
	c0.5,2.5,1.7,4.8,3.5,6.6c1.8,1.8,4.1,3,6.6,3.5c2.5,0.5,5.1,0.2,7.4-0.7c2.4-1,4.4-2.6,5.8-4.7c1.4-2.1,2.2-4.6,2.2-7.2
	c0-3.4-1.4-6.7-3.8-9.1C93.4,7.6,90.1,6.2,86.7,6.2z"/>
<path fill="#FFFFFF" d="M146.2,14.8c-0.4,0-0.7,0.1-1.1,0.3c-0.3,0.2-0.6,0.4-0.8,0.7c-0.2,0.3-0.3,0.7-0.4,1c0,0.4,0,0.7,0.2,1.1
	c0.1,0.3,0.4,0.6,0.7,0.9c0.3,0.2,0.6,0.4,1,0.5c0.4,0.1,0.7,0.1,1.1-0.1c0.4-0.1,0.7-0.3,0.9-0.6c0.3-0.3,0.5-0.7,0.6-1.1
	c0.1-0.4,0-0.9-0.1-1.3c-0.2-0.4-0.5-0.8-0.8-1C147.1,14.9,146.7,14.8,146.2,14.8z"/>
<path fill="#FFFFFF" d="M153.4,7.6c-0.5,0-1,0.2-1.4,0.5c-0.4,0.3-0.7,0.8-0.8,1.3c-0.1,0.5,0,1,0.2,1.5c0.2,0.5,0.6,0.8,1.1,1
	c0.5,0.2,1,0.2,1.5,0.1c0.5-0.2,0.9-0.5,1.2-0.9c0.3-0.4,0.4-1,0.4-1.5c-0.1-0.5-0.3-1-0.6-1.4c-0.2-0.2-0.5-0.4-0.7-0.5
	C154,7.7,153.7,7.6,153.4,7.6z"/>
<path fill="#FFFFFF" d="M160,5.5c0.6,0,1.2-0.2,1.6-0.7c0.4-0.4,0.7-1,0.7-1.6c0-0.4-0.1-0.7-0.3-1.1c-0.2-0.3-0.4-0.6-0.7-0.8
	c-0.3-0.2-0.7-0.3-1-0.4c-0.4,0-0.7,0-1.1,0.2c-0.3,0.1-0.6,0.4-0.9,0.6c-0.2,0.3-0.4,0.6-0.5,1c-0.1,0.4-0.1,0.7,0.1,1.1
	c0.1,0.4,0.3,0.7,0.6,0.9c0.2,0.2,0.5,0.4,0.7,0.5C159.4,5.4,159.7,5.5,160,5.5z"/>
<path fill="#FFFFFF" d="M153.2,21.7c-0.4,0-0.7,0.1-1.1,0.3c-0.3,0.2-0.6,0.4-0.8,0.7c-0.2,0.3-0.3,0.7-0.4,1c0,0.4,0,0.7,0.2,1.1
	s0.4,0.6,0.6,0.9c0.3,0.2,0.6,0.4,1,0.5c0.4,0.1,0.7,0.1,1.1-0.1c0.4-0.1,0.7-0.3,0.9-0.6c0.4-0.4,0.7-1,0.7-1.6
	c0-0.6-0.2-1.2-0.7-1.6c-0.2-0.2-0.5-0.4-0.7-0.5C153.8,21.8,153.5,21.7,153.2,21.7z"/>
<path fill="#FFFFFF" d="M160.1,14.8c-0.5,0-1,0.2-1.4,0.5c-0.4,0.3-0.7,0.8-0.8,1.3c-0.1,0.5,0,1,0.2,1.5s0.6,0.8,1.1,1
	c0.5,0.2,1,0.2,1.5,0.1c0.5-0.2,0.9-0.5,1.2-0.9c0.3-0.4,0.4-1,0.4-1.5c-0.1-0.5-0.3-1-0.6-1.4c-0.2-0.2-0.5-0.4-0.7-0.5
	C160.7,14.9,160.4,14.8,160.1,14.8z"/>
<path fill="#FFFFFF" d="M167,12.5c0.3,0,0.6-0.1,0.9-0.2c0.3-0.1,0.5-0.3,0.7-0.5c0.4-0.4,0.7-1,0.7-1.6c0-0.6-0.2-1.2-0.7-1.6
	c-0.3-0.3-0.6-0.5-0.9-0.6c-0.4-0.1-0.7-0.1-1.1-0.1s-0.7,0.2-1,0.5c-0.3,0.2-0.5,0.5-0.6,0.9c-0.1,0.3-0.2,0.7-0.2,1.1
	c0,0.4,0.2,0.7,0.4,1c0.2,0.3,0.5,0.6,0.8,0.7C166.2,12.4,166.6,12.5,167,12.5z"/>
<path fill="#FFFFFF" d="M158.4,29.2c-0.3,0.3-0.5,0.7-0.6,1.1c-0.1,0.4,0,0.9,0.1,1.3c0.2,0.4,0.5,0.8,0.8,1
	c0.4,0.2,0.8,0.4,1.2,0.4s0.9-0.1,1.2-0.4c0.4-0.2,0.7-0.6,0.8-1s0.2-0.9,0.1-1.3c-0.1-0.4-0.3-0.8-0.6-1.1c-0.4-0.4-1-0.7-1.6-0.7
	S158.8,28.8,158.4,29.2z"/>
<path fill="#FFFFFF" d="M167.4,21.1c-0.4,0-0.7,0.1-1.1,0.3c-0.3,0.2-0.6,0.4-0.8,0.7c-0.2,0.3-0.3,0.7-0.4,1c0,0.4,0,0.7,0.2,1.1
	c0.1,0.3,0.4,0.6,0.6,0.9c0.3,0.2,0.6,0.4,1,0.5c0.4,0.1,0.7,0.1,1.1-0.1c0.4-0.1,0.7-0.3,0.9-0.6c0.4-0.4,0.7-1,0.7-1.6
	c0-0.6-0.2-1.2-0.7-1.6c-0.2-0.2-0.5-0.4-0.7-0.5C168,21.2,167.7,21.1,167.4,21.1z"/>
<path fill="#FFFFFF" d="M175.3,15.4c-0.4-0.4-0.9-0.6-1.4-0.6c-0.5-0.1-1,0.1-1.5,0.4c-0.4,0.3-0.8,0.7-0.9,1.2
	c-0.2,0.5-0.1,1,0.1,1.5c0.2,0.5,0.6,0.9,1,1.1c0.5,0.2,1,0.3,1.5,0.2c0.5-0.1,1-0.4,1.3-0.8c0.3-0.4,0.5-0.9,0.5-1.4
	c0-0.3-0.1-0.6-0.2-0.9C175.7,15.9,175.6,15.6,175.3,15.4z"/>
</svg>
