<?xml version="1.0" encoding="utf-8"?>
<!-- Generator: Adobe Illustrator 24.2.0, SVG Export Plug-In . SVG Version: 6.00 Build 0)  -->
<svg version="1.1" id="Layer_1" xmlns="http://www.w3.org/2000/svg" xmlns:xlink="http://www.w3.org/1999/xlink" x="0px" y="0px"
	 viewBox="0 0 64 64" enable-background="new 0 0 64 64" xml:space="preserve">
<path fill="#385EFC" d="M54,0H0v54l10,10h54V10L54,0z"/>
<path fill="#FFFFFF" d="M17,42.2h12.5v-3.5h-8.6V21H17V42.2z"/>
<path fill="#FFFFFF" d="M42.3,33.9c0.5,0.1,0.9,0.4,0.9,0.9v3.1c0,0.5-0.4,0.8-0.9,0.8h-4.5c-0.5,0-0.9-0.3-0.9-0.8v-2.2l-3.8,0.6
	v2.4c0,1.9,1.6,3.5,3.5,3.5h6.9c1.9,0,3.5-1.6,3.5-3.5v-4.7c0-1.9-1.5-2.9-3.3-3.4c-2.3-0.7-3.9-1.1-5.8-1.6
	c-0.5-0.1-0.9-0.4-0.9-0.9v-2.6c0-0.5,0.4-0.8,0.9-0.8h4.4c0.5,0,0.9,0.3,0.9,0.8v2.3l3.8-0.6v-2.5c0-1.9-1.6-3.5-3.5-3.5h-6.7
	c-1.9,0-3.5,1.6-3.5,3.5v4.4c0,1.9,1.5,2.9,3.4,3.4C39,33,39.9,33.2,42.3,33.9z"/>
</svg>
