<?xml version="1.0" encoding="utf-8"?>
<!-- Generator: Adobe Illustrator 24.2.0, SVG Export Plug-In . SVG Version: 6.00 Build 0)  -->
<svg version="1.1" id="Layer_1" xmlns="http://www.w3.org/2000/svg" xmlns:xlink="http://www.w3.org/1999/xlink" x="0px" y="0px"
	 viewBox="0 0 121 36" style="enable-background:new 0 0 121 36;" xml:space="preserve">
<style type="text/css">
	.st0{fill:url(#SVGID_1_);}
	.st1{fill-rule:evenodd;clip-rule:evenodd;fill:#FFFFFF;}
	.st2{fill:#FFFFFF;}
</style>
<linearGradient id="SVGID_1_" gradientUnits="userSpaceOnUse" x1="-11.5085" y1="25.601" x2="48.9035" y2="14.1572" gradientTransform="matrix(1 0 0 -1 0 38)">
	<stop  offset="0" style="stop-color:#00BFFF"/>
	<stop  offset="0.3559" style="stop-color:#0094FD"/>
	<stop  offset="0.6176" style="stop-color:#385EFC"/>
	<stop  offset="0.9476" style="stop-color:#3F30EC"/>
</linearGradient>
<path class="st0" d="M30.4,0H0v30.3L5.7,36h30.4V5.7L30.4,0z"/>
<path class="st1" d="M25,8.8h2.1v18.5h-5.9l-7.2-8.5v-3.1l8.3,9.5H25V8.8z M11.1,27.3H9V8.8H15l7.2,8.5v3.1l-8.3-9.5h-2.8V27.3z"/>
<path class="st2" d="M56.9,13.5h-2.1v7.8l-4.6-7.8h-2.1v12h2.1v-7.8l4.6,7.8h2.1V13.5z"/>
<path class="st2" d="M67.9,13.5h-2l-4.1,12H64l0.8-2.6h4.1l0.9,2.6H72L67.9,13.5z M66.9,16.4l1.4,4.6h-2.8L66.9,16.4z"/>
<path class="st2" d="M80.5,21h2.1v2c0,0.3-0.2,0.5-0.5,0.5h-2.7c-0.3,0-0.5-0.2-0.5-0.5V16c0-0.3,0.2-0.5,0.5-0.5h2.7
	c0.3,0,0.5,0.2,0.5,0.5v1.2l2.2-0.4v-1.3c0-1.1-0.9-2-2-2h-4.1c-1.1,0-2,0.9-2,2v8c0,1.1,0.9,2,2,2h4.1c1.1,0,2-0.9,2-2v-4.4h-4.3
	V21z"/>
<path class="st2" d="M92.6,13.5h-2.2v12h2.2V13.5z"/>
<path class="st2" d="M100.5,25.5h4.2c1.1,0,2-0.9,2-2v-8c0-1.1-0.9-2-2-2h-4.2c-1.1,0-2,0.9-2,2v8C98.5,24.6,99.4,25.5,100.5,25.5z
	 M104.5,23c0,0.3-0.2,0.5-0.5,0.5h-2.9c-0.3,0-0.5-0.2-0.5-0.5V16c0-0.3,0.2-0.5,0.5-0.5h2.9c0.3,0,0.5,0.2,0.5,0.5V23z"/>
<path class="st2" d="M117.7,20.8c0.3,0.1,0.5,0.2,0.5,0.5V23c0,0.3-0.2,0.5-0.5,0.5h-2.5c-0.3,0-0.5-0.2-0.5-0.5v-1.3l-2.2,0.4v1.4
	c0,1.1,0.9,2,2,2h3.9c1.1,0,2-0.9,2-2v-2.7c0-1.1-0.9-1.7-1.9-1.9c-1.3-0.4-2.2-0.6-3.3-0.9c-0.3-0.1-0.5-0.3-0.5-0.5V16
	c0-0.3,0.2-0.5,0.5-0.5h2.5c0.3,0,0.5,0.2,0.5,0.5v1.3l2.2-0.4v-1.4c0-1.1-0.9-2-2-2h-3.8c-1.1,0-2,0.9-2,2V18
	c0,1.1,0.9,1.6,1.9,1.9C115.8,20.3,116.3,20.4,117.7,20.8z"/>
</svg>
