<svg width="34" height="29" fill="none" xmlns="http://www.w3.org/2000/svg"><path d="M23.545 2.674h0L9.399 5.653s0 0 0 0l-.674.138a40.75 40.75 0 00-1.654.357h0c-.221.055-.425.11-.659.178h0l-.006.002-.17.055a.37.37 0 00-.138.045.534.534 0 00-.22.219.566.566 0 00.04.603.533.533 0 00.253.186 32.874 32.874 0 018.22 4.324 28.28 28.28 0 01.176 5.795v.028a.548.548 0 00-.025.13 12.874 12.874 0 01-3.917 3.456c-.384.216-.78.404-1.187.565a3.81 3.81 0 00-.195-1.363 3.62 3.62 0 00-.88-1.422 3.022 3.022 0 00-1.372-.827 2.883 2.883 0 00-1.582.01h0l-.01.003a2.489 2.489 0 00-1.2.906c-.304.422-.48.932-.508 1.461v.02c.024.538.194 1.058.491 1.497a2.64 2.64 0 001.186.97l.003.002c.782.304 1.62.395 2.44.27a3.907 3.907 0 01-.985 1.062h0c-.857.636-1.813 1.108-2.8 1.549-.263.117-.53.233-.797.349-.727.316-1.46.634-2.157 1.001h0c-.302.16-.317.502-.232.72a.605.605 0 00.24.3.478.478 0 00.43.037h.002c1.294-.506 2.592-1.106 3.858-1.703a9.54 9.54 0 002.751-1.807h0l.005-.004c.512-.51.895-1.15 1.113-1.857 2.355-.78 4.429-2.553 5.958-4.557a.579.579 0 00.172-.052h0a89.895 89.895 0 013.321-1.488h.002a93.853 93.853 0 003.203-1.432 38.827 38.827 0 013.475 4.013l.008.01.01.01a.599.599 0 00.78.077.643.643 0 00.191-.208l.006-.01.004-.01c2.48-5.621 4.68-11.38 6.592-17.25a.648.648 0 00.18-.228.68.68 0 00-.18-.811.548.548 0 00-.54-.161l-8.876 1.863zM5.285 21.596h0l-.006-.007a1.344 1.344 0 01-.357-.505 1.446 1.446 0 01.071-1.238 1.3 1.3 0 01.412-.452h0l.005-.003c.72-.517 1.708-.22 2.306.474h0l.004.005c.276.302.473.678.57 1.091.087.374.09.764.008 1.138-1.14.269-2.258.222-3.012-.503zM23.318 6.577c1.74-.963 3.505-1.876 5.293-2.74a3699.35 3699.35 0 01-3.551 2.742 2981.002 2981.002 0 00-4.616 3.564h0l-1.698 1.321a.644.644 0 00-.214.243.676.676 0 00-.07.249 267.5 267.5 0 00-2.88 4.013 40.755 40.755 0 00-.291-4.236l.003-.003a4.037 4.037 0 011.262-1.035l.01-.005.01-.007a68.925 68.925 0 012.134-1.389h0a90.328 90.328 0 014.608-2.716h0zm-8.558 4.114a33.945 33.945 0 00-6.405-3.55l.352-.075.313-.068h0l6.22-1.338h0l12.344-2.614c-1.66.818-3.3 1.68-4.923 2.588h-.002c-1.583.9-3.146 1.835-4.688 2.804h0a73.097 73.097 0 00-2.303 1.525c-.329.205-.633.45-.908.728zm16.79-7.54a169.37 169.37 0 01-5.85 14.602 34.777 34.777 0 00-5.571-5.71c3.715-2.888 7.424-5.776 11.128-8.664h0l.292-.228zM18.196 15.815c-.557.236-1.115.473-1.674.717.572-.755 1.131-1.515 1.69-2.274.325-.442.65-.884.976-1.323a30.98 30.98 0 011.875 1.63c-.951.436-1.907.842-2.867 1.25z" fill="#000" stroke="#000" stroke-width=".411"/></svg>