<svg width="24" height="24" fill="none" xmlns="http://www.w3.org/2000/svg"><path d="M22.381 1l-7.012.007a.619.619 0 00-.619.62v1.43a.619.619 0 00.631.62l3.164-.118.088.089L6.652 15.63a.516.516 0 000 .73l.989.99a.516.516 0 00.73 0L20.352 5.365l.089.089-.117 3.164a.617.617 0 00.619.631h1.43a.619.619 0 00.62-.619L23 1.62a.619.619 0 00-.619-.62zm-2.819 12.375h-.687a.687.687 0 00-.688.688v6.617a.258.258 0 01-.257.258H3.32a.258.258 0 01-.257-.258V6.07a.258.258 0 01.257-.258h6.617a.687.687 0 00.688-.687v-.688a.687.687 0 00-.688-.687H3.064A2.063 2.063 0 001 5.813v15.125A2.063 2.063 0 003.063 23h15.124a2.062 2.062 0 002.063-2.063v-6.875a.687.687 0 00-.688-.687z" fill="#000"/></svg>