<svg width="68" height="62" fill="none" xmlns="http://www.w3.org/2000/svg"><path d="M35.061 58.698c3.122-3.065 7.69-7.614 12.201-12.797 4.834-5.555 9.58-11.811 12.412-17.73h0c1.555-3.236 3.574-8.878 4.285-12.433.783-3.913-.117-8.126-2.436-10.636-1.151-1.245-2.654-2.077-4.499-2.264-1.851-.186-4.09.273-6.709 1.691l-.034.019-.037.013c-3.55 1.26-6.638 3.6-9.504 6.336-1.847 1.762-3.573 3.658-5.27 5.521-.93 1.021-1.85 2.033-2.777 3.007a.351.351 0 01-.009.013c-.183.644-.803.914-1.324.92-.564.008-1.234-.276-1.502-.938-.44-1.033-.837-2.146-1.235-3.264l-.017-.049c-.394-1.108-.79-2.222-1.238-3.296-.912-2.187-2.018-4.15-3.68-5.491l11.373 51.378zm0 0l-.02-.034-.13-.065c-3.218-1.609-4.967-3.01-6.441-4.448-.482-.47-.945-.956-1.427-1.462-.98-1.029-2.037-2.139-3.481-3.354l-.002-.002c-5.081-4.242-9.629-9.797-13.255-15.407l-.001-.001c-1.276-1.967-2.98-5.122-4.385-8.38-1.413-3.276-2.491-6.584-2.573-8.879v-.003c-.188-4.52.726-7.54 2.204-9.497 1.471-1.949 3.552-2.91 5.842-3.212 2.298-.303 4.788.062 7.01.75 2.227.69 4.14 1.69 5.287 2.616L35.06 58.698zm20.745-18.69h0l-.932 1.569-.001.001c-4.498 7.498-11.803 14.37-18.607 19.643m19.54-21.213L34.8 60.578a1.3 1.3 0 01-.406.29m21.413-20.86l.002-.006.001-.001c.465-.804.934-1.612 1.402-2.464.344-.605.706-1.233 1.08-1.882 1.92-3.333 4.151-7.208 5.814-11.227 1.986-4.799 3.199-9.891 2.06-14.604l-.001-.002c-1.204-4.903-3.603-7.661-6.708-8.76-3.069-1.088-6.7-.506-10.29.97-6.759 2.777-13.67 8.845-17.104 13.92C30.028 9.5 25.2 4.226 18.573 1.88c-3.746-1.33-7.6-1.307-10.791.087-3.203 1.4-5.7 4.165-6.734 8.233h0v.002l-.02.075c-.189.75-.713 2.834-.46 5.173.394 8.342 5.774 17.26 10.273 23.245m44.966 1.313L10.84 38.695M36.266 61.22v.001l-.307-.395.309.393-.002.002zm0 0c-.517.406-1.129.285-1.528-.005a1.525 1.525 0 01-.344-.348m0 0a1.33 1.33 0 01-.012.005c-.369.16-.78.114-1.16-.139l-.003-.002c-8.876-6.018-15.953-13.44-22.378-22.037m23.553 22.173a1.435 1.435 0 01-.217-.452l-23.336-21.72" fill="#000" stroke="#000"/></svg>