<svg width="24" height="24" fill="none" xmlns="http://www.w3.org/2000/svg"><path d="M12.505 6.61a5.377 5.377 0 00-5.386 5.385 5.377 5.377 0 005.386 5.386 5.377 5.377 0 005.386-5.386 5.377 5.377 0 00-5.386-5.386zm0 8.887a3.508 3.508 0 01-3.502-3.502 3.505 3.505 0 013.502-3.501 3.505 3.505 0 013.501 3.501 3.508 3.508 0 01-3.501 3.502zm6.862-9.108c0 .698-.562 1.256-1.256 1.256a1.256 1.256 0 111.256-1.256zm3.567 1.275c-.08-1.683-.464-3.173-1.696-4.402-1.229-1.228-2.72-1.612-4.402-1.696-1.734-.099-6.933-.099-8.667 0C6.49 1.646 5 2.03 3.767 3.258S2.155 5.976 2.07 7.659c-.098 1.735-.098 6.933 0 8.668.08 1.682.464 3.173 1.697 4.401C5 21.956 6.486 22.34 8.17 22.425c1.734.098 6.933.098 8.667 0 1.683-.08 3.174-.464 4.402-1.697 1.228-1.228 1.612-2.719 1.697-4.402.098-1.734.098-6.928 0-8.662zm-2.24 10.523a3.545 3.545 0 01-1.997 1.997c-1.383.549-4.664.422-6.192.422-1.528 0-4.814.122-6.192-.422a3.545 3.545 0 01-1.997-1.997c-.549-1.382-.422-4.664-.422-6.192 0-1.528-.122-4.814.422-6.192a3.545 3.545 0 011.997-1.997c1.382-.548 4.664-.422 6.192-.422 1.528 0 4.814-.122 6.192.422a3.545 3.545 0 011.997 1.997c.548 1.383.422 4.664.422 6.192 0 1.528.126 4.814-.422 6.192z" fill="#000"/></svg>