<svg xmlns="http://www.w3.org/2000/svg" viewBox="0 0 34 29"><path d="M33.2 1.2c0-.1-.1-.2-.2-.2-.1-.1-.1-.1-.2-.1h-.3l-8.9 1.9h0l-14.2 3-.1 1.1 6-1.3h0L27.7 3c-1.7.8-3.3 1.7-5 2.6h0c-1.6.9-3.2 1.8-4.7 2.8h0c-.8.5-1.5 1-2.3 1.5-.3.2-.6.4-.9.7-1.8-1.2-3.6-2.2-5.6-3.1l.1-.6h0l.1-1.3c-.2.1-.4.1-.7.2-.5.1-1.1.2-1.6.3h0c-.2.1-.4.1-.7.2h0l-.2.1h-.1c-.1.1-.2.1-.2.2-.1.1-.1.2-.1.3 0 .1 0 .2.1.3.1.1.2.2.3.2l3 1.2s0 0 0 0c1.8.9 3.6 1.9 5.3 3.1.3 1.9.3 3.8.2 5.8h0v.1c-1.1 1.4-2.4 2.6-3.9 3.4l-1.2.6c0-.5 0-.9-.2-1.4-.2-.5-.5-1-.9-1.4l-.1-.1v0c-.4-.3-.8-.6-1.2-.7-.5-.1-1.1-.1-1.6 0h0c-.5.2-.9.5-1.2.9-.3.4-.5.9-.5 1.5h0c0 .5.2 1.1.5 1.5.3.4.7.8 1.2 1h0c.8.3 1.6.4 2.5.3-.3.4-.6.8-1 1.1h0c-1.1.6-2.1 1-3.1 1.5-.3.1-.5.2-.8.3-.7.3-1.5.6-2.2 1h0c-.3.2-.3.5-.2.7 0 .1.1.2.2.3.1.1.3.1.4 0h0c1.3-.5 2.6-1.1 3.9-1.7 1-.4 1.9-1 2.8-1.8h0c.5-.5.9-1.1 1.1-1.9 2.4-.8 4.4-2.5 6-4.5.1 0 .1 0 .2-.1h0l3.3-1.5h0c1.1-.5 2.2-.9 3.2-1.4 1.2 1.2 2.4 2.6 3.5 4h0c.1.1.1.1.2.1h.3c.1 0 .2 0 .3-.1l.2-.2h0c2.5-5.4 4.7-11.1 6.6-17l.2-.2c0-.1.1-.2.1-.3 0-.1-.1-.2-.1-.3zM8.3 22c-.1 0-.3.1-.4.1-1 .2-2 .1-2.6-.6h0c-.2-.1-.3-.3-.4-.5s-.1-.4-.1-.6c0-.2.1-.4.2-.6.1-.2.2-.3.4-.5h0c.7-.5 1.7-.2 2.3.5h0c.1.2.3.3.4.5 0 0 0 0 0 0 .1.2.2.4.2.6.1.4.1.7 0 1.1zm7-10.3h0c.4-.4.8-.8 1.3-1h0c.7-.5 1.4-.9 2.1-1.4h0c1.5-.9 3-1.8 4.6-2.7h0c1.8-1 3.5-1.9 5.3-2.8-1.2.9-2.4 1.8-3.6 2.8-1.5 1.2-3.1 2.4-4.6 3.6h0l-1.7 1.3c-.1.1-.2.1-.2.2s-.1.2-.1.2c-1 1.3-1.9 2.7-2.9 4 .1-1.4 0-2.8-.2-4.2zm2.9 4.1c-.6.2-1.1.5-1.7.7.6-.8 1.1-1.5 1.7-2.3.3-.4.7-.9 1-1.3.7.5 1.3 1.1 1.9 1.6-.9.4-1.9.9-2.9 1.3zm7.5 1.9c-1.7-2.1-3.5-4-5.6-5.7 3.7-2.9 7.4-5.8 11.2-8.6h0l.3-.2c-1.7 4.9-3.7 9.7-5.9 14.5z" stroke="#000" stroke-width=".4"/></svg>