<svg width="24" height="24" fill="none" xmlns="http://www.w3.org/2000/svg"><path d="M11.763 10.715c-7.151-.113-9.606-.167-9.746 1.458-.14 1.625 1.788 1.083 10.062 1.041 8.274-.041 9.852.542 9.887-.958.035-1.5-2.279-1.416-10.203-1.541zm-.212-3.222c8.428-.327 10.399.796 10.399-1.129s-1.764-1.053-8.937-1.234C2.486 4.864 2.015 4.864 2.003 6.548c-.01 1.236 1.12 1.272 9.548.945zm.77 8.875C3.344 16.504 1.993 16.104 2 17.543c.007 1.439.007 1.49 6.812 1.33 6.805-.16 13.362.772 13.185-.827-.177-1.598-.305-1.82-9.676-1.678z" fill="#000"/></svg>