<svg width="24" height="24" fill="none" xmlns="http://www.w3.org/2000/svg"><g clip-path="url(#clip0)"><path d="M23.128 1.153L18.253.028a1.132 1.132 0 00-1.289.652l-2.25 5.25a1.12 1.12 0 00.323 1.312l2.841 2.325a17.373 17.373 0 01-8.306 8.306l-2.325-2.84a1.124 1.124 0 00-1.313-.324l-5.25 2.25a1.14 1.14 0 00-.656 1.294l1.125 4.875c.117.506.567.872 1.097.872C14.255 24 24 14.274 24 2.25c0-.525-.36-.98-.872-1.097z" fill="#000"/></g><defs><clipPath id="clip0"><path fill="#fff" d="M0 0h24v24H0z"/></clipPath></defs></svg>