<svg width="44" height="33" fill="none" xmlns="http://www.w3.org/2000/svg"><path fill-rule="evenodd" clip-rule="evenodd" d="M7 15h13v17H1V15L8 1h6L7 15zm23 0h13v17H24V15l7-14h6l-7 14z" fill="#fff"/><path d="M20 15h.5v-.5H20v.5zM7 15l-.447-.224-.362.724H7V15zm13 17v.5h.5V32H20zM1 32H.5v.5H1V32zm0-17l-.447-.224-.053.106V15H1zM8 1V.5h-.309l-.138.276L8 1zm6 0l.447.224L14.81.5H14V1zm29 14h.5v-.5H43v.5zm-13 0l-.447-.224-.362.724H30V15zm13 17v.5h.5V32H43zm-19 0h-.5v.5h.5V32zm0-17l-.447-.224-.053.106V15h.5zm7-14V.5h-.309l-.138.276L31 1zm6 0l.447.224L37.81.5H37V1zM20 14.5H7v1h13v-1zm.5 17.5V15h-1v17h1zM1 32.5h19v-1H1v1zM.5 15v17h1V15h-1zM7.553.776l-7 14 .894.448 7-14-.894-.448zM14 .5H8v1h6v-1zM7.447 15.224l7-14-.894-.448-7 14 .894.448zM43 14.5H30v1h13v-1zm.5 17.5V15h-1v17h1zm-19.5.5h19v-1H24v1zM23.5 15v17h1V15h-1zM30.553.776l-7 14 .894.448 7-14-.894-.448zM37 .5h-6v1h6v-1zm-6.553 14.724l7-14-.894-.448-7 14 .894.448z" fill="#fff"/></svg>