<svg width="99" height="16" fill="none" xmlns="http://www.w3.org/2000/svg"><path d="M.994 2.144v11.872c0 .84.588 1.428 1.428 1.428h1.764V13.82h-1.05c-.252 0-.378-.14-.378-.42V2.76c0-.28.126-.42.378-.42h1.05V.716H2.422c-.84 0-1.428.588-1.428 1.428zM15.531 5.28c0-1.862-1.288-3.08-3.136-3.08H8.083V12h1.848V8.36h1.61L13.333 12h2.086l-2.016-3.78c1.274-.364 2.128-1.442 2.128-2.94zm-5.6-1.4h2.282c.882 0 1.47.546 1.47 1.4 0 .854-.588 1.414-1.47 1.414H9.931V3.88zM19.51 2.2V12h6.524v-1.68h-4.676V7.898h4.2v-1.68h-4.2V3.88h4.592V2.2h-6.44zm10.525 0V12h3.36c2.632 0 4.032-1.344 4.032-3.976V6.176c0-2.632-1.4-3.976-4.032-3.976h-3.36zm1.848 1.68h1.54c1.484 0 2.156.812 2.156 2.24v1.96c0 1.428-.672 2.24-2.156 2.24h-1.54V3.88zM43.217 2.2L40.473 12h1.89l.588-2.184h3.416L46.955 12h1.89L46.1 2.2h-2.884zm.182 5.936l1.19-4.424h.14l1.19 4.424h-2.52zm8.483.14c0 2.52 1.568 3.92 4.032 3.92 2.463 0 3.892-1.4 3.892-3.528v-.364h-1.848v.392c0 .98-.7 1.848-2.044 1.848-1.345 0-2.184-.868-2.184-2.24V5.896c0-1.372.84-2.24 2.184-2.24 1.343 0 2.044.868 2.044 1.848v.28h1.848v-.252c0-2.128-1.428-3.528-3.892-3.528-2.465 0-4.032 1.4-4.032 3.92v2.352zM62.877 2.2v1.68h2.968V12h1.848V3.88h2.968V2.2h-7.784zm11.513 0V12h6.523v-1.68h-4.676V7.898h4.2v-1.68h-4.2V3.88h4.592V2.2h-6.44zm10.524 0V12h3.36c2.632 0 4.032-1.344 4.032-3.976V6.176c0-2.632-1.4-3.976-4.032-3.976h-3.36zm1.848 1.68h1.54c1.484 0 2.156.812 2.156 2.24v1.96c0 1.428-.672 2.24-2.156 2.24h-1.54V3.88zM99 2.144c0-.84-.587-1.428-1.427-1.428h-1.764V2.34h1.05c.252 0 .378.14.378.42V13.4c0 .28-.126.42-.378.42h-1.05v1.624h1.764c.84 0 1.428-.588 1.428-1.428V2.144z" fill="#D21B31"/></svg>