<svg width="173" height="48" fill="none" xmlns="http://www.w3.org/2000/svg"><g clip-path="url(#clip0)"><path fill-rule="evenodd" clip-rule="evenodd" d="M109.548 1.07c.633.18 1.087.36 1.557.42.567.07 1.148.05 1.722.05.479-.01.963-.1 1.436-.06 2.297.21 4.602.12 6.9.23 1.053.05 2.1.21 3.151.3.576.06 1.144.03 1.71-.13.945-.27 1.894-.22 2.842.03 1.121.29 2.254.42 3.417.26.267-.03.567.07.836.16.361.12.706.28 1.017.41 1.97-.05 1.97-.05 3.404.48.669.15 1.338.04 2.007.01.669-.04 1.337-.1 2.071-.15.491.1 1.017.37 1.604.35.576-.02 1.151-.01 1.719.1 1.421.27 2.859.33 4.299.36 1.439.02 2.877.04 4.308.21.485.05.956.01 1.421-.14.464-.14.944-.17 1.424-.15 2.395.12 4.791.19 7.169.55 1.328.2 2.668.31 3.99.55.381.07.761-.02 1.143-.06.281-.03.591.1.761.33.404.54.906.98 1.39 1.45.127.12.173.32.256.49-.195.62.299 1.09.37 1.65.062.47.174.94.322 1.39.058.18.078.38.115.57.008.66-.157 1.32.04 1.99.163.56.11 1.12-.029 1.7-.108.45.138.95-.092 1.42-.294.36-.67.67-.839 1.13-.074.21.012.38.159.51.225.2.522.22.78.34.172.07.329.19.521.3.124.23.27.47.396.73a.91.91 0 01.002.83c-.173.34-.396.65-.565.92-.122.72.072 1.4-.121 2.06-.494.57-.488.58-.224 1.26.068.18.117.36.174.54-.023.52-.3.89-.635 1.25-.269.29-.25.32-.28 1.05-.21.32-.418.64-.663 1.02-.575.54-1.328 1-1.723 1.82-.975.41-1.942.82-3.009 1.28-2.474.24-5.024.73-7.623.77-.383 0-.767.05-1.146.1-1.524.22-3.058.29-4.592.36-1.534.07-3.065.15-4.586.4-.661.1-1.337.12-2.007.17-1.436.1-2.874.18-4.298.41-.379.06-.764.1-1.146.1-1.926 0-3.829.23-5.731.51-.664.09-1.336.13-2.005.19-.956.09-1.918.12-2.853.36-2.39.2-4.748.68-7.151.78-1.244.05-2.492.12-3.718.4-.464.1-.951.11-1.429.16-.477.04-.963.04-1.433.12-1.61.29-3.232.44-4.865.5-.192.01-.386.01-.573.05-1.795.34-3.624.39-5.431.64-1.426.19-2.854.36-4.288.49-1.721.16-3.421.47-5.129.72-.854.12-1.704.28-2.562.37-1.053.1-2.088.29-3.128.47-1.038.18-2.094.22-3.128.47-1.209.3-2.465.35-3.691.59-1.692.34-3.411.54-5.115.81-.852.14-1.696.32-2.544.49-.846.17-1.689.36-2.539.51-.849.15-1.717.18-2.544.47-.267.09-.564.11-.849.14-1.049.12-2.089.28-3.123.5-1.029.23-2.088.29-3.122.52-1.217.27-2.45.49-3.687.62-1.72.18-3.401.6-5.127.74-.76.06-1.505.3-2.264.41-1.805.25-3.618.45-5.42.72-2.563.39-5.147.59-7.72.88-1.522.17-3.059.23-4.589.32-1.148.07-2.302.07-3.454.07-.958.01-1.918-.07-2.875-.03-1.921.06-3.833-.12-5.75-.16-.478-.01-.973-.03-1.427-.16-1.03-.29-2.082-.33-3.135-.38a41.228 41.228 0 01-4.292-.38c-2.096-.31-4.204-.34-6.281.25-.36.1-.76.07-1.141.08-.083 0-.169-.08-.254-.13-.057-.26-.115-.54-.171-.8-.193-.33-.592-.51-.658-.95.213-.39.434-.81.678-1.26l-.127-1.6c-.26-.51-.507-.93-.69-1.37-.189-.46-.525-.79-.846-1.14a.631.631 0 01-.17-.53c.027-.16.444-.35.718-.34.861.02 1.723.04 2.536.07.691-.24 1.323-.45 1.982-.67-.663-.66-1.396-1.08-2.26-1.27a46.46 46.46 0 01-3.065-.78 4.46 4.46 0 01-1.748-.96c.226-.52.414-1.06.796-1.51.192-.23.243-.51.248-.8-.276-.95-.871-1.7-1.473-2.35-.365-.87-.718-1.66-1.025-2.47-.17-.44-.273-.91-.383-1.38-.095-.4.027-.75.371-1 .797.02.797.02 4.216 1.07.593.07 1.259.16 1.927.22.285.03.574.04.861.03 1.916-.1 3.831-.2 5.835-.31 1.163-.5 2.442-.88 3.763-1.14.391-.08.663-.36.834-.73.055-.6-.284-1.1-.467-1.88l-.099-1.56c.199-1.16.472-2.38.525-3.63-.004-.5-.36-.89-.444-1.36-.091-2.68-.091-2.68-.494-4.88.012-.26-.003-.55.043-.84.259-1.61.38-3.23.391-4.87.002-.38.079-.76.146-1.14a2.2 2.2 0 01.185-.54c.175-.37.487-.62.877-.66a11 11 0 011.722-.05c3.649.11 7.293.01 10.937-.16.288-.02.577-.01.863-.04 3.534-.33 7.085-.47 10.611-.9.761-.09 1.53-.12 2.297-.16 2.396-.11 4.792-.2 7.182-.44 1.24-.13 2.491-.14 3.738-.18C58.692.96 61.187.92 63.68.82 71.354.53 79.031.49 86.708.49c2.879-.01 5.758.06 8.638.1.287 0 .578-.01.863.02 2.005.23 4.022.24 6.034.33.575.03 1.147.03 1.721.04 1.919.01 3.838.06 5.584.09z" fill="#15151D"/></g><defs><clipPath id="clip0"><path fill="#fff" transform="rotate(-90 24 24)" d="M0 0h48v173H0z"/></clipPath></defs></svg>