<svg width="24" height="24" fill="none" xmlns="http://www.w3.org/2000/svg"><g clip-path="url(#clip0)"><path d="M5.011 11.265l4.67 2.279c.9.44.759 1.758-.211 2.002l-5.04 1.256a1.068 1.068 0 01-1.323-.918 9.242 9.242 0 01.422-4 1.069 1.069 0 011.482-.619zM7.073 22.48a9.35 9.35 0 003.723 1.505 1.066 1.066 0 001.248-1.016l.183-5.195c.033-.998-1.195-1.496-1.866-.755l-3.479 3.863a1.07 1.07 0 00.192 1.598zm6.813-5.153l2.757 4.407a1.075 1.075 0 001.594.257 9.298 9.298 0 002.47-3.169 1.078 1.078 0 00-.637-1.478l-4.941-1.606c-.952-.305-1.772.74-1.243 1.59zm6.953-6.198a9.254 9.254 0 00-2.363-3.249 1.072 1.072 0 00-1.593.206l-2.907 4.31c-.558.829.22 1.903 1.181 1.626l5-1.43a1.078 1.078 0 00.684-1.463h-.002zM5.911 1.415a1.072 1.072 0 00-.464 1.5l4.881 8.458c.548.947 1.997.558 1.997-.535V1.072A1.063 1.063 0 0011.177.004a15.017 15.017 0 00-5.266 1.41z" fill="#000"/></g><defs><clipPath id="clip0"><path fill="#fff" d="M0 0h24v24H0z"/></clipPath></defs></svg>