<svg xmlns="http://www.w3.org/2000/svg" viewBox="0 0 152.6 35.1"><path fill="#15151D" d="M32.5 16.9zM10 35.1zm9.5-31.2c-6.8 0-12.4 5.2-12.9 11.9-3.9 1.4-6.6 5-6.6 9.3 0 5.5 4.5 10 10 10 3.8 0 7.1-2.1 8.8-5.2h.8c7.2 0 13-5.8 13-13-.1-7.2-6-13-13.1-13zM10 31.2c-3.3 0-6.1-2.7-6.1-6.1 0-2.2 1.2-4.1 3-5.2 1 4.1 3.9 7.5 7.8 9-1.2 1.4-2.8 2.3-4.7 2.3zm5.6-3.8C12 26.1 9.3 23 8.5 19.2c.5-.1 1-.2 1.5-.2 3.3 0 6.1 2.7 6.1 6.1-.1.8-.2 1.6-.5 2.3zm3.9.7c.3-1 .4-2 .4-3 0-5.5-4.5-10-10-10-.6 0-1.1 0-1.6.1.8-5.5 5.5-9.7 11.1-9.7 6.2 0 11.3 5.1 11.3 11.3s-5 11.3-11.2 11.3zM4.8 0C3.6 0 2.6 1 2.6 2.2c0 .7.3 1.3.9 1.7.4.3.8.4 1.3.4s.9-.2 1.3-.4c.5-.4.9-1 .9-1.7C6.9 1 6 0 4.8 0z"/><path d="M45.3 15.1c0-.5.4-.8 1.1-.8.8 0 1.1.3 1.6.7l1.3-1.8c-.7-.7-1.8-1.2-3.1-1.2-2.1 0-3.5 1.4-3.5 3.1 0 3.5 4.5 3.3 4.5 4.9 0 .5-.4.8-1 .8-.7 0-1.7-.4-2.3-1.1l-1.4 1.7c.5 1.1 2.2 1.8 3.6 1.8 2.1 0 3.7-1.3 3.7-3.1 0-3.7-4.5-3.2-4.5-5zM57.5 17c-.4 0-.8 0-1.1-.1v-2.4h1.1c.9 0 1.5.3 1.5 1.2 0 1-.8 1.3-1.5 1.3zm-.3-4.8h-3.3v10.7h2.4v-3.6h1.2c2.5 0 4-1.7 4-3.6.1-1.8-1-3.5-4.3-3.5zm10.5 6.1l1.2-3 1.2 3h-2.4zm.2-6.1l-4.5 10.7h2.5l.9-2.2H71l.9 2.2h2.6l-4.4-10.7h-2.2zM83 20.8c-1.9 0-3.2-1.4-3.2-3.2 0-2.1 1.4-3.2 3-3.2 1 0 1.6.3 2.2.7l1.1-1.8c-.6-.6-1.8-1.1-3.3-1.1-3.7 0-5.6 2.5-5.6 5.5 0 3.3 2.3 5.5 5.6 5.5 1.5 0 2.8-.5 3.5-1.2l-1-2c-.7.5-1.6.8-2.3.8zm9.6-2.1h3v-2.3h-3v-1.9h4v-2.3h-6.4v10.7h6.6v-2.3h-4.1l-.1-1.9zm19.4-1.8h-.9v-2.4h1.1c1.2 0 1.5.6 1.5 1.2-.1.8-.8 1.2-1.7 1.2zm4.2-1.3c0-2-1-3.4-4-3.4h-3.6v10.7h2.4v-3.7h.9l2.6 3.7h3l-3.1-4.2c.6-.3 1.8-1.1 1.8-3.1zm7.7 2.7l1.2-3 1.2 3h-2.4zm.2-6.1l-4.5 10.7h2.5l.9-2.2h4.2l.9 2.2h2.6l-4.4-10.7h-2.2zm14.8 8.6c-1.9 0-3.2-1.4-3.2-3.2 0-2.1 1.4-3.2 3-3.2 1 0 1.6.3 2.2.7l1.1-1.8c-.6-.6-1.8-1.1-3.3-1.1-3.7 0-5.6 2.5-5.6 5.5 0 3.3 2.3 5.5 5.6 5.5 1.5 0 2.8-.5 3.5-1.2l-.9-1.8c-.8.3-1.7.6-2.4.6zm9.4-.2v-1.9h3v-2.3h-3v-1.9h4.1v-2.3h-6.5v10.7h6.7v-2.3h-4.3z" fill-rule="evenodd" clip-rule="evenodd" fill="#15151D"/></svg>