<svg xmlns="http://www.w3.org/2000/svg" viewBox="0 0 32.5 35.1"><path fill="#FFF" d="M32.5 16.9zM10 35.1zm9.5-31.2c-6.8 0-12.4 5.2-12.9 11.9-3.9 1.4-6.6 5-6.6 9.3 0 5.5 4.5 10 10 10 3.8 0 7.1-2.1 8.8-5.2h.8c7.2 0 13-5.8 13-13-.1-7.2-6-13-13.1-13zM10 31.2c-3.3 0-6.1-2.7-6.1-6.1 0-2.2 1.2-4.1 3-5.2 1 4.1 3.9 7.5 7.8 9-1.2 1.4-2.8 2.3-4.7 2.3zm5.6-3.8C12 26.1 9.3 23 8.5 19.2c.5-.1 1-.2 1.5-.2 3.3 0 6.1 2.7 6.1 6.1-.1.8-.2 1.6-.5 2.3zm3.9.7c.3-1 .4-2 .4-3 0-5.5-4.5-10-10-10-.6 0-1.1 0-1.6.1.8-5.5 5.5-9.7 11.1-9.7 6.2 0 11.3 5.1 11.3 11.3s-5 11.3-11.2 11.3zM4.8 0C3.6 0 2.6 1 2.6 2.2c0 .7.3 1.3.9 1.7.4.3.8.4 1.3.4s.9-.2 1.3-.4c.5-.4.9-1 .9-1.7C6.9 1 6 0 4.8 0z"/></svg>